<?xml version="1.0" standalone="no"?>
<!DOCTYPE svg PUBLIC "-//W3C//DTD SVG 20010904//EN"
 "http://www.w3.org/TR/2001/REC-SVG-20010904/DTD/svg10.dtd">
<svg version="1.0" xmlns="http://www.w3.org/2000/svg"
 width="512.000000pt" height="512.000000pt" viewBox="0 0 512.000000 512.000000"
 preserveAspectRatio="xMidYMid meet">

<g transform="translate(0.000000,512.000000) scale(0.100000,-0.100000)"
fill="#000000" stroke="none">
<path d="M2229 5092 c-34 -17 -65 -44 -84 -71 l-30 -43 -3 -238 -3 -239 -65
-51 c-156 -122 -244 -309 -244 -514 0 -177 64 -331 189 -456 130 -129 282
-193 461 -193 178 0 322 57 449 178 120 115 189 254 206 417 13 126 -27 292
-98 403 -39 62 -129 159 -173 186 l-33 20 -3 232 c-3 217 -4 235 -25 274 -27
51 -82 96 -132 112 -22 6 -107 11 -199 11 -155 0 -161 -1 -213 -28z m396 -147
c25 -24 25 -27 25 -200 l0 -177 -42 9 c-56 11 -262 10 -310 -1 l-38 -8 0 178
c0 236 -10 224 192 224 145 0 150 -1 173 -25z m-22 -525 c130 -40 241 -137
302 -265 196 -407 -211 -847 -634 -686 -284 108 -404 439 -259 713 107 203
367 307 591 238z"/>
<path d="M2360 4191 c-110 -39 -191 -168 -176 -278 31 -228 297 -323 456 -163
54 53 80 119 79 194 -3 184 -185 309 -359 247z m177 -175 c24 -26 33 -45 33
-71 0 -133 -164 -173 -225 -55 -19 37 -19 63 0 101 40 77 134 89 192 25z"/>
<path d="M3040 3360 c-11 -11 -20 -33 -20 -49 0 -18 78 -186 198 -428 368
-743 548 -1174 766 -1842 48 -146 94 -292 102 -325 22 -82 15 -176 -18 -239
l-24 -48 -667 1339 c-366 736 -673 1344 -681 1351 -22 19 -74 16 -96 -4 -39
-36 -28 -70 130 -385 l150 -300 -410 0 c-268 0 -410 3 -410 10 0 6 65 141 145
300 88 176 145 301 145 319 0 53 -70 89 -111 58 -9 -7 -290 -559 -624 -1227
-334 -668 -609 -1217 -611 -1220 -5 -5 -303 141 -310 152 -3 4 247 510 554
1125 700 1400 668 1333 651 1369 -16 33 -55 50 -93 40 -23 -6 -54 -61 -256
-466 l-230 -460 -223 0 c-245 0 -273 -6 -329 -66 -87 -93 -71 -248 34 -320 39
-28 47 -29 170 -32 70 -2 128 -7 128 -12 0 -5 -124 -260 -276 -567 -298 -602
-300 -606 -261 -680 17 -33 17 -33 -23 -114 -61 -121 -63 -203 -7 -283 l20
-29 -56 -113 c-32 -63 -57 -127 -57 -144 0 -59 74 -92 116 -52 10 10 44 69 74
130 46 95 58 112 78 112 100 0 178 59 237 179 32 67 43 81 62 81 29 0 92 31
114 56 10 11 176 337 370 727 l354 707 623 0 623 0 494 -994 c320 -644 500
-998 513 -1005 31 -16 56 -13 86 10 37 29 34 64 -19 168 l-44 89 43 65 c65 97
81 152 81 277 -1 100 -4 114 -58 284 -31 98 -57 180 -57 182 0 6 58 34 69 34
6 0 20 -19 32 -43 58 -115 166 -167 280 -133 108 31 169 112 169 223 0 56 -7
75 -83 230 -100 206 -114 225 -179 257 -169 84 -369 -52 -343 -234 4 -24 20
-70 35 -101 l29 -56 -26 -12 c-14 -7 -29 -8 -33 -4 -4 4 -40 100 -80 213 -40
113 -103 280 -140 372 -37 92 -65 170 -62 173 3 3 56 5 119 5 155 0 209 24
255 114 16 31 19 54 16 107 -4 83 -39 140 -107 176 -42 22 -54 23 -260 23
l-216 1 -225 457 c-124 251 -233 464 -242 474 -24 24 -73 23 -98 -2z m-1800
-1085 c0 -2 -12 -29 -27 -60 l-27 -55 -145 0 c-120 0 -147 3 -163 17 -22 20
-23 61 -1 85 14 16 34 18 190 18 95 0 173 -2 173 -5z m1743 -50 c15 -31 27
-58 27 -60 0 -3 -245 -5 -545 -5 -300 0 -545 2 -545 5 0 2 12 29 27 60 l27 55
491 0 491 0 27 -55z m1039 38 c22 -20 24 -66 2 -87 -13 -13 -42 -16 -157 -16
l-142 0 -27 60 -26 60 166 0 c140 0 168 -3 184 -17z m345 -755 c38 -41 163
-305 163 -343 0 -61 -61 -100 -117 -73 -39 18 -198 328 -188 367 11 43 44 71
85 71 25 0 43 -7 57 -22z m-3592 -900 c36 -18 65 -35 65 -38 0 -3 -17 -36 -38
-75 -43 -81 -74 -100 -120 -74 -47 26 -50 57 -11 143 19 42 35 76 36 76 2 0
32 -14 68 -32z"/>
</g>
</svg>
